<?xml version="1.0" encoding="UTF-8" standalone="no"?>
<!-- Created with Inkscape (http://www.inkscape.org/) -->

<svg
   xmlns:dc="http://purl.org/dc/elements/1.1/"
   xmlns:cc="http://creativecommons.org/ns#"
   xmlns:rdf="http://www.w3.org/1999/02/22-rdf-syntax-ns#"
   xmlns:svg="http://www.w3.org/2000/svg"
   xmlns="http://www.w3.org/2000/svg"
   xmlns:sodipodi="http://sodipodi.sourceforge.net/DTD/sodipodi-0.dtd"
   xmlns:inkscape="http://www.inkscape.org/namespaces/inkscape"
   width="48"
   height="48"
   viewBox="0 0 12.7 12.7"
   version="1.1"
   id="svg8"
   inkscape:version="0.92.1 unknown"
   sodipodi:docname="bs.svg">
  <defs
     id="defs2">
    <clipPath
       clipPathUnits="userSpaceOnUse"
       id="clipPath5343">
      <path
         style="fill:#7aafff;fill-opacity:1;stroke:none;stroke-width:2.01045942;stroke-linecap:round;stroke-linejoin:round;stroke-miterlimit:4;stroke-dasharray:none;stroke-opacity:1"
         d="m 3.0688351,285.55677 c -1.613568,1.19596 -2.5662181,3.08478 -2.56883509,5.09323 0,3.50701 2.84299219,6.35 6.35000009,6.35 C 10.357008,297 13.2,294.15701 13.2,290.65 c -0.0022,-0.84296 -0.452078,-2.71271 -0.500228,-2.45359 -0.02424,0.84121 -0.571809,2.35322 -0.602031,2.23138 -0.0026,-0.50621 -0.2876,-1.42626 -0.305098,-1.19509 0.02804,1.40695 -1.48374,3.17677 -2.3076623,3.50038 -0.8310457,0.36942 -1.7371637,0.56412 -2.6117267,0.56534 -0.1736918,2e-5 -1.1686519,-0.13807 -1.6443439,-0.70435 -0.826376,-0.89253 -0.00201,-1.09994 0.4625039,-1.27331 0.5055862,-0.18871 1.030887,-0.30969 1.5203212,-0.42013 0.7456988,-0.16826 0.4710618,-0.52626 0.1049028,-0.6289 -0.9266939,-0.25976 -2.044886,0.33543 -2.8654579,0.30593 -0.848406,-0.0291 -0.804618,-1.69621 -0.1405601,-1.76217 0.7394212,-0.0734 1.6665151,-0.51079 1.461779,-0.65673 -0.8303549,-0.61672 -0.9617369,-0.79081 -1.0595549,-1.16418 -0.1480201,-0.565 0.341282,-1.03557 0.05777,-0.96356 -0.2596169,0.08 -0.4110678,0.15641 -0.5988619,0.25715 -0.1672929,0.0897 -0.293814,0.0546 -0.6751841,0.002 -0.3249449,-0.045 -0.3870058,-0.0557 -0.3755009,-0.25673 0.0115,-0.20097 0.07295,-0.52125 -0.05223,-0.47648 z"
         id="path5345"
         inkscape:connector-curvature="0"
         sodipodi:nodetypes="ccscccccccssscscscssscc" />
    </clipPath>
    <clipPath
       clipPathUnits="userSpaceOnUse"
       id="clipPath4543">
      <path
         style="opacity:1;vector-effect:none;fill:#666666;fill-opacity:1;stroke:none;stroke-width:2.11666656;stroke-linecap:round;stroke-linejoin:round;stroke-miterlimit:4;stroke-dasharray:none;stroke-dashoffset:0;stroke-opacity:1"
         d="m 1.7760088,291.5696 c -1.82613339,0.17434 -3.2940315,0.91934 -3.4903996,2.16451 -0.2629054,1.66729 1.5678591,3.34127 4.0891213,3.73893 1.2172084,0.19119 2.434234,0.053 3.3807423,-0.38387 0.7310194,0.5283 1.669357,0.90078 2.6704721,1.06008 2.5212691,0.39771 4.7783381,-0.6315 5.0412801,-2.2988 0.262905,-1.6673 -1.490667,-1.94329 -4.257163,-2.17938 -2.7664958,-0.23609 -3.6163896,-1.68839 -5.7470448,-2.04575 -0.5660191,-0.0893 -1.1380808,-0.10817 -1.6870084,-0.0557 z"
         id="path4545"
         inkscape:connector-curvature="0"
         sodipodi:nodetypes="cccccczcc" />
    </clipPath>
  </defs>
  <sodipodi:namedview
     id="base"
     pagecolor="#ffffff"
     bordercolor="#666666"
     borderopacity="1.0"
     inkscape:pageopacity="0.0"
     inkscape:pageshadow="2"
     inkscape:zoom="16"
     inkscape:cx="3.5503727"
     inkscape:cy="12.812998"
     inkscape:document-units="mm"
     inkscape:current-layer="layer1"
     showgrid="false"
     units="px"
     inkscape:window-width="2450"
     inkscape:window-height="1564"
     inkscape:window-x="110"
     inkscape:window-y="36"
     inkscape:window-maximized="1" />
  <metadata
     id="metadata5">
    <rdf:RDF>
      <cc:Work
         rdf:about="">
        <dc:format>image/svg+xml</dc:format>
        <dc:type
           rdf:resource="http://purl.org/dc/dcmitype/StillImage" />
        <dc:title />
      </cc:Work>
    </rdf:RDF>
  </metadata>
  <g
     inkscape:label="圖層 1"
     inkscape:groupmode="layer"
     id="layer1"
     transform="translate(0,-284.3)">
    <g
       id="g4539"
       transform="translate(9.536743e-8,-4.9999999e-6)">
      <circle
         r="6.3499999"
         cy="290.64999"
         cx="6.3499999"
         id="path4514"
         style="fill:#ffac76;fill-opacity:1;stroke:none;stroke-width:1.74658811;stroke-linecap:round;stroke-linejoin:round;stroke-miterlimit:4;stroke-dasharray:none;stroke-opacity:1" />
      <path
         id="path4514-3"
         d="m 6.2926805,284.30329 a 6.35,6.35 0 0 0 -0.081649,0.003 v 2.26033 l -3.0204872,2.71611 c -0.098766,0.0511 -0.1520185,0.16114 -0.1307415,0.27027 0.023196,0.14778 0.1701033,0.24225 0.3141927,0.20205 h 2.9615763 v 2.14406 c -0.045941,0.13928 0.037152,0.28802 0.1798342,0.32194 0.00342,0.001 0.00687,0.002 0.010335,0.003 0.032969,0.008 0.067256,0.0101 0.1007692,0.004 h 2.5760701 l -2.6416992,2.37401 c -0.03755,0.0286 -0.066218,0.0673 -0.082682,0.11163 -0.013737,0.0359 -0.019045,0.0744 -0.015502,0.11265 v 2.17041 a 6.35,6.35 0 0 0 0.5002278,-0.0367 v -2.04639 l 3.0349563,-2.72955 c 0.06502,-0.0445 0.1052338,-0.11711 0.1085208,-0.19585 3e-6,-6.6e-4 3e-6,-0.001 0,-0.002 3.7e-4,-0.008 3.7e-4,-0.0155 0,-0.0233 -1.66e-4,-0.001 -3.18e-4,-0.003 -5.3e-4,-0.004 -3.96e-4,-0.007 -0.0011,-0.0142 -0.0021,-0.0212 -7.4e-4,-0.005 -0.0016,-0.009 -0.0026,-0.014 v -5.2e-4 c -0.02578,-0.12274 -0.138493,-0.20738 -0.2635491,-0.19792 -0.00415,5.5e-4 -0.00828,10e-4 -0.012404,0.002 H 6.8357997 v -2.18075 c 0.012224,-0.0729 -0.0084,-0.14739 -0.056327,-0.2036 -5.292e-4,-6.6e-4 -0.00103,-10e-4 -0.00156,-0.002 -0.00172,-0.002 -0.00341,-0.003 -0.00517,-0.005 -0.048181,-0.0547 -0.1178179,-0.0856 -0.190686,-0.0847 -0.013523,2.4e-4 -0.027001,0.002 -0.040308,0.004 h -2.574001 l 2.6272296,-2.36213 c 0.053093,-0.0338 0.091476,-0.0864 0.107487,-0.14727 1.825e-4,-0.001 3.439e-4,-0.002 5.291e-4,-0.003 0.0019,-0.007 0.00342,-0.0147 0.00465,-0.0222 0.00424,-0.0228 0.00528,-0.0461 0.0031,-0.0692 v -2.32802 a 6.35,6.35 0 0 0 -0.4180629,-0.0202 z"
         style="fill:#ff924b;fill-opacity:1;stroke:none;stroke-width:1.74658811;stroke-linecap:round;stroke-linejoin:round;stroke-miterlimit:4;stroke-dasharray:none;stroke-opacity:1"
         inkscape:connector-curvature="0" />
      <path
         sodipodi:nodetypes="ccccccccccccccccc"
         inkscape:connector-curvature="0"
         id="path4514-2"
         d="m 5.9801019,284.30956 c -3.354715,0.19855 -5.973862,2.97649 -5.974829,6.33708 0.0027,3.45692 2.770222,6.27656 6.226493,6.3438 v -2.25878 c -0.0035,-0.0382 0.0018,-0.0768 0.0155,-0.11265 0.01647,-0.0443 0.04513,-0.083 0.08268,-0.11162 l 2.641699,-2.37402 h -2.576069 c -0.03352,0.005 -0.06781,0.004 -0.100769,-0.004 -0.0035,-8e-4 -0.0069,-0.002 -0.01034,-0.003 -0.142679,-0.0339 -0.225771,-0.18267 -0.179834,-0.32194 v -2.14406 h -2.961567 c -0.144088,0.0402 -0.290995,-0.0543 -0.314193,-0.20205 -0.02127,-0.10913 0.03198,-0.21921 0.130742,-0.27027 l 3.020487,-2.71611 z"
         style="fill:#999999;fill-opacity:1;stroke:none;stroke-width:1.74658811;stroke-linecap:round;stroke-linejoin:round;stroke-miterlimit:4;stroke-dasharray:none;stroke-opacity:1" />
      <path
         id="path4514-0"
         d="m 6.3501057,284.29998 a 6.35,6.35 0 0 0 -0.370004,0.0134 v 2.16472 l -3.0204871,2.71611 a 0.25032214,0.25032214 0 0 0 -0.1307414,0.27027 0.250025,0.250025 0 0 0 0.3141927,0.20206 h 2.9615768 v 2.14405 a 0.25032214,0.25032214 0 0 0 0.179833,0.32195 0.25032214,0.25032214 0 0 0 0.01034,0.003 0.250025,0.250025 0 0 0 0.100769,0.004 h 2.576071 l -2.6417,2.37402 a 0.250025,0.250025 0 0 0 -0.08268,0.11162 0.25035565,0.25035565 0 0 0 -0.0155,0.11265 v 2.2562 a 6.35,6.35 0 0 0 0.118339,0.006 6.35,6.35 0 0 0 0.381889,-0.0134 v -2.16109 l 3.034957,-2.72956 a 0.250025,0.250025 0 0 0 0.108521,-0.19585 0.250025,0.250025 0 0 0 0,-0.002 0.250025,0.250025 0 0 0 0,-0.0233 0.250025,0.250025 0 0 0 -5.29e-4,-0.004 0.250025,0.250025 0 0 0 -0.0021,-0.0212 0.250025,0.250025 0 0 0 -0.0026,-0.0139 0.250025,0.250025 0 0 0 0,-5.3e-4 0.250025,0.250025 0 0 0 -0.26355,-0.19792 0.250025,0.250025 0 0 0 -0.0124,0.002 h -2.989424 v -2.18073 a 0.250025,0.250025 0 0 0 -0.05633,-0.2036 0.250025,0.250025 0 0 0 -0.0016,-0.002 0.250025,0.250025 0 0 0 -0.0052,-0.005 0.250025,0.250025 0 0 0 -0.190686,-0.0847 0.250025,0.250025 0 0 0 -0.04031,0.004 H 3.7368179 l 2.6272298,-2.36212 a 0.250025,0.250025 0 0 0 0.107487,-0.14729 0.250025,0.250025 0 0 0 5.29e-4,-0.003 0.250025,0.250025 0 0 0 0.0047,-0.0222 0.250025,0.250025 0 0 0 0.0031,-0.0692 v -2.25725 a 6.35,6.35 0 0 0 -0.129708,-0.006 z"
         style="fill:#ffffff;fill-opacity:1;stroke:none;stroke-width:1.74658811;stroke-linecap:round;stroke-linejoin:round;stroke-miterlimit:4;stroke-dasharray:none;stroke-opacity:1"
         inkscape:connector-curvature="0" />
    </g>
  </g>
</svg>
